<?xml version="1.0" standalone="no"?>
<!DOCTYPE svg PUBLIC "-//W3C//DTD SVG 20010904//EN"
 "http://www.w3.org/TR/2001/REC-SVG-20010904/DTD/svg10.dtd">
<svg version="1.0" xmlns="http://www.w3.org/2000/svg"
 width="512.000000pt" height="512.000000pt" viewBox="0 0 512.000000 512.000000"
 preserveAspectRatio="xMidYMid meet">
<metadata>
Created by potrace 1.14, written by Peter Selinger 2001-2017
</metadata>
<g transform="translate(0.000000,512.000000) scale(0.100000,-0.100000)"
fill="#000000" stroke="none">
<path d="M3814 4968 c-35 -9 -93 -68 -95 -96 -8 -100 -31 -208 -65 -297 -4
-11 -8 -22 -8 -25 -1 -3 -5 -11 -9 -17 -5 -7 -5 -13 -2 -13 4 0 -1 -7 -9 -16
-9 -8 -19 -27 -23 -42 -3 -14 -15 -35 -25 -46 -10 -11 -18 -24 -18 -28 0 -47
-291 -338 -338 -338 -7 0 -12 -3 -12 -8 0 -4 -33 -24 -73 -45 -93 -50 -101
-56 -120 -94 -52 -100 17 -204 135 -204 44 0 275 132 351 200 12 11 42 38 67
60 25 22 50 45 55 51 6 6 25 25 43 44 17 18 32 37 32 41 0 4 8 15 19 24 33 29
181 275 181 301 0 4 7 24 15 44 8 20 15 38 15 41 0 3 6 21 14 40 8 19 13 35
11 35 -3 0 0 11 5 25 12 30 19 66 26 120 3 22 7 51 10 65 7 30 7 39 0 65 -2
11 -5 25 -5 30 -1 16 -44 61 -70 75 -31 16 -67 19 -107 8z"/>
<path d="M4646 4675 c-16 -9 -37 -25 -45 -37 -17 -23 -53 -140 -41 -133 8 5
-25 -138 -58 -245 -14 -47 -26 -88 -26 -92 -1 -3 -4 -10 -8 -14 -5 -4 -8 -16
-8 -26 0 -10 -5 -18 -12 -18 -6 0 -8 -3 -5 -6 3 -4 1 -16 -5 -28 -7 -11 -11
-24 -10 -28 1 -5 -3 -8 -9 -8 -5 0 -7 -4 -4 -10 3 -5 1 -10 -4 -10 -6 0 -10
-3 -9 -7 4 -12 -69 -139 -115 -203 -52 -71 -55 -75 -114 -137 -28 -29 -48 -55
-45 -58 3 -3 0 -5 -6 -5 -6 0 -22 -11 -36 -25 -39 -39 -184 -135 -261 -172
-80 -39 -106 -68 -113 -128 -11 -104 99 -188 193 -146 11 5 43 19 70 31 28 12
69 35 93 51 24 16 45 29 48 29 3 0 14 9 26 20 12 11 28 20 35 20 7 0 13 4 13
8 0 5 16 20 35 34 46 32 148 131 205 198 25 29 55 64 67 77 12 12 20 23 17 23
-5 0 26 51 36 60 15 13 85 138 129 232 46 97 115 295 127 363 3 17 10 48 15
70 5 22 12 58 15 80 3 22 7 51 10 65 23 107 -37 190 -138 190 -18 0 -46 -7
-62 -15z"/>
<path d="M206 4163 c-2 -2 -13 -6 -26 -8 -12 -2 -28 -9 -36 -16 -8 -6 -14 -9
-14 -5 0 4 -16 -8 -35 -25 -48 -44 -85 -122 -85 -180 0 -91 20 -117 299 -397
l262 -263 -45 -69 c-26 -38 -46 -73 -46 -76 0 -4 -6 -15 -13 -23 -28 -33 -119
-259 -131 -323 -3 -13 -5 -24 -7 -25 -2 -4 -4 -13 -13 -63 -4 -25 -10 -58 -14
-75 -9 -43 -8 -340 1 -406 8 -59 11 -73 28 -149 5 -25 12 -54 14 -65 2 -11 4
-21 5 -22 2 -2 3 -6 5 -10 1 -5 4 -15 7 -23 3 -8 16 -44 28 -80 48 -142 180
-396 242 -464 10 -11 18 -25 18 -32 0 -6 7 -15 16 -18 8 -3 12 -10 9 -16 -3
-5 -2 -10 3 -10 5 0 20 -15 33 -33 81 -113 272 -308 424 -432 27 -22 61 -51
75 -65 15 -14 31 -26 36 -28 5 -2 21 -13 35 -25 14 -12 33 -26 42 -32 52 -32
163 -110 165 -117 2 -5 8 -6 13 -2 5 3 9 1 9 -4 0 -5 8 -12 18 -16 17 -5 52
-26 62 -36 18 -18 266 -145 360 -184 47 -20 93 -40 102 -46 10 -5 27 -10 38
-10 11 0 20 -4 20 -10 0 -5 3 -9 8 -8 11 3 95 -24 109 -35 7 -5 20 -7 28 -3 8
3 15 2 15 -3 0 -4 6 -8 13 -9 12 -1 47 -9 57 -12 3 -1 9 -2 14 -1 4 1 13 -3
20 -8 6 -5 25 -10 41 -12 17 -2 36 -7 43 -13 7 -5 15 -6 18 -3 3 3 19 1 36 -4
47 -13 108 -22 155 -23 24 -1 43 -4 43 -7 0 -13 389 -18 510 -6 131 13 201 22
208 27 3 3 10 5 67 15 28 5 52 9 55 10 3 1 24 5 48 10 23 4 42 10 42 14 0 3
14 7 31 8 17 1 37 8 45 14 8 6 14 8 14 4 0 -4 7 -2 15 5 8 7 15 10 15 7 0 -3
16 1 35 9 19 8 35 11 35 8 0 -4 7 -1 15 6 8 7 15 9 15 4 0 -5 4 -4 8 1 4 6 32
18 62 29 30 10 80 30 110 45 30 15 58 28 63 29 10 3 215 107 252 129 17 10 60
37 97 60 38 24 68 39 68 35 0 -4 5 1 11 11 5 9 17 17 24 17 8 0 15 5 15 11 0
5 5 7 10 4 6 -3 10 -2 10 3 0 6 22 24 50 42 27 17 66 45 87 61 21 16 43 32 48
36 41 31 163 131 175 143 8 8 37 33 65 55 91 73 99 86 55 98 -11 3 -18 2 -16
-2 4 -5 -117 31 -131 40 -2 1 -7 3 -13 4 -5 1 -12 4 -15 5 -3 1 -8 3 -12 4
-27 6 -159 75 -218 113 -77 51 -86 58 -121 90 -13 12 -24 20 -24 17 0 -3 -43
38 -95 91 -52 53 -95 98 -95 101 0 3 -11 17 -25 32 -47 50 -115 139 -115 150
0 6 -4 12 -8 14 -12 4 -92 125 -92 137 0 6 -4 11 -10 11 -5 0 -10 7 -10 15 0
8 -4 15 -8 15 -4 0 -13 12 -20 28 -6 15 -23 45 -37 67 -14 22 -28 48 -32 58
-3 9 -8 17 -12 17 -4 0 -13 16 -21 35 -8 19 -17 35 -22 35 -4 0 -8 4 -8 9 0 8
-34 71 -118 221 -13 25 -38 70 -55 100 -40 74 -70 128 -82 148 -39 65 -138
231 -148 247 -7 11 -15 22 -18 25 -5 4 -47 66 -74 109 -5 9 -12 18 -15 21 -3
3 -17 21 -31 40 -15 19 -35 45 -45 58 -11 12 -30 36 -44 54 -43 54 -212 217
-290 281 -41 34 -78 66 -82 72 -4 5 -8 6 -8 2 0 -4 -12 4 -27 18 -16 14 -36
28 -45 31 -10 3 -18 8 -18 12 0 4 -25 20 -55 37 -30 16 -55 33 -55 38 0 4 -4
5 -10 2 -5 -3 -10 -1 -10 4 0 6 -5 11 -10 11 -6 0 -42 18 -81 40 -38 21 -72
39 -74 40 -3 0 -22 7 -43 16 -46 20 -194 73 -219 79 -10 3 -38 9 -63 15 -127
32 -214 42 -370 43 -198 1 -361 -28 -528 -94 -72 -29 -192 -87 -202 -99 -3 -3
-22 -14 -42 -25 -21 -11 -38 -23 -38 -27 0 -3 -8 -9 -19 -13 -10 -3 -31 -17
-47 -30 -16 -14 -34 -25 -40 -25 -6 0 -128 117 -271 260 -143 143 -267 261
-274 261 -8 1 -17 1 -21 0 -5 0 -8 4 -8 10 0 6 -7 9 -15 6 -8 -4 -17 -2 -20 2
-4 8 -81 11 -89 4z"/>
<path d="M4800 3116 c-37 -16 -64 -45 -90 -96 -29 -57 -75 -124 -102 -150 -12
-11 -19 -20 -16 -20 9 0 -91 -97 -134 -132 -18 -14 -49 -39 -69 -55 -20 -15
-74 -53 -121 -83 -47 -30 -94 -66 -104 -80 -27 -35 -26 -136 1 -168 24 -29 72
-55 85 -47 6 3 10 2 10 -3 0 -11 35 -8 73 7 36 14 169 100 179 115 4 6 8 7 8
3 0 -5 7 -1 16 7 9 9 32 29 52 44 42 31 54 42 151 135 38 38 80 82 93 98 13
17 33 42 46 57 12 15 28 39 35 55 6 15 15 27 19 27 5 0 8 7 8 15 0 8 5 15 12
15 6 0 9 3 5 6 -3 3 4 22 15 42 18 33 24 77 15 123 -4 23 -39 64 -67 79 -32
17 -88 20 -120 6z"/>
</g>
</svg>
